{
  "accessors": [
    {
      "bufferView": 2,
      "componentType": 5126,
      "count": 4888,
      "max": [
        0.46795281767845154,
        0.15409892797470093,
        0.43902823328971863
      ],
      "min": [
        -0.467952698469162,
        -0.5684971809387207,
        -0.0013235298683866858
      ],
      "type": "VEC3"
    },
    {
      "bufferView": 2,
      "byteOffset": 58656,
      "componentType": 5126,
      "count": 4888,
      "max": [
        0.9999990463256836,
        0.9992496967315674,
        0.9999964237213135
      ],
      "min": [
        -0.9999990463256836,
        -0.9995989799499512,
        -0.9999982118606567
      ],
      "type": "VEC3"
    },
    {
      "bufferView": 1,
      "componentType": 5126,
      "count": 4888,
      "max": [
        0.992171585559845,
        0.9906796216964722
      ],
      "min": [
        0.007186710834503174,
        0.02350763976573944
      ],
      "type": "VEC2"
    },
    {
      "bufferView": 0,
      "componentType": 5125,
      "count": 23016,
      "type": "SCALAR"
    }
  ],
  "asset": {
    "extras": {
      "author": "Egarshan (https://sketchfab.com/egarshan)",
      "license": "CC-BY-4.0 (http://creativecommons.org/licenses/by/4.0/)",
      "source": "https://sketchfab.com/3d-models/cartoon-crab-64ddb36a8610408eb40466566f5da167",
      "title": "Cartoon Crab"
    },
    "generator": "Sketchfab-12.68.0",
    "version": "2.0"
  },
  "bufferViews": [
    {
      "buffer": 0,
      "byteLength": 92064,
      "name": "floatBufferViews",
      "target": 34963
    },
    {
      "buffer": 0,
      "byteLength": 39104,
      "byteOffset": 92064,
      "byteStride": 8,
      "name": "floatBufferViews",
      "target": 34962
    },
    {
      "buffer": 0,
      "byteLength": 117312,
      "byteOffset": 131168,
      "byteStride": 12,
      "name": "floatBufferViews",
      "target": 34962
    }
  ],
  "buffers": [
    {
      "byteLength": 248480,
      "uri": "scene.bin"
    }
  ],
  "images": [
    {
      "uri": "textures/Crab_baseColor.jpeg"
    },
    {
      "uri": "textures/Crab_metallicRoughness.png"
    }
  ],
  "materials": [
    {
      "doubleSided": true,
      "name": "Crab",
      "occlusionTexture": {
        "index": 1
      },
      "pbrMetallicRoughness": {
        "baseColorTexture": {
          "index": 0
        },
        "metallicFactor": 0.0,
        "metallicRoughnessTexture": {
          "index": 1
        }
      }
    }
  ],
  "meshes": [
    {
      "name": "Crab.004_Crab_0",
      "primitives": [
        {
          "attributes": {
            "NORMAL": 1,
            "POSITION": 0,
            "TEXCOORD_0": 2
          },
          "indices": 3,
          "material": 0,
          "mode": 4
        }
      ]
    }
  ],
  "nodes": [
    {
      "children": [
        1
      ],
      "matrix": [
        -1.0,
        8.07538625896079e-32,
        -2.832769343193999e-16,
        0.0,
        -2.832769343193999e-16,
        -3.828568672208042e-16,
        1.0,
        0.0,
        -2.770065955897755e-32,
        1.0,
        3.828568672208042e-16,
        0.0,
        -1.8477439880371094e-06,
        -3.055344075839548e-08,
        0.41439640522003174,
        1.0
      ],
      "name": "Sketchfab_model"
    },
    {
      "children": [
        2
      ],
      "matrix": [
        0.009999999776482582,
        0.0,
        0.0,
        0.0,
        0.0,
        0.0,
        0.009999999776482582,
        0.0,
        0.0,
        -0.009999999776482582,
        0.0,
        0.0,
        0.0,
        0.0,
        0.0,
        1.0
      ],
      "name": "4c78e617657a480ba28caa639a37b947.fbx"
    },
    {
      "children": [
        3
      ],
      "name": "RootNode"
    },
    {
      "children": [
        4
      ],
      "matrix": [
        100.0,
        0.0,
        0.0,
        0.0,
        0.0,
        -1.629206793918314e-05,
        -99.99999999999868,
        0.0,
        0.0,
        99.99999999999868,
        -1.629206793918314e-05,
        0.0,
        0.0,
        0.0,
        0.0,
        1.0
      ],
      "name": "Crab.004"
    },
    {
      "mesh": 0,
      "name": "Crab.004_Crab_0"
    }
  ],
  "samplers": [
    {
      "magFilter": 9729,
      "minFilter": 9987,
      "wrapS": 10497,
      "wrapT": 10497
    }
  ],
  "scene": 0,
  "scenes": [
    {
      "name": "Sketchfab_Scene",
      "nodes": [
        0
      ]
    }
  ],
  "textures": [
    {
      "sampler": 0,
      "source": 0
    },
    {
      "sampler": 0,
      "source": 1
    }
  ]
}
